# xmcd
# Copyright (C) 1995-1998 Ti Kan
#
# Track frame offsets:
#       150
#       19321
#       38148
#       58210
#       73994
#       92374
#       108531
#       126493
#       139784
#       155066
#       172577
#       188846
#
# Disc length: 2820 seconds
#
# Revision: 0
# Processed by: cddbd v1.5.2PL0 Copyright (c) Steve Scherf et al.
# Submitted via: CD-Import v1.0
#
DISCID=aa0b020c
DTITLE=Ueli Schmezer - Himustärnehimu
DYEAR=09
DGENRE=
TTITLE0=Alles
TTITLE1=Himustärnehimu
TTITLE2=Tram
TTITLE3=Gäldischnüt
TTITLE4=Äleiälei
TTITLE5=Einischimläbe
TTITLE6=Westwind
TTITLE7=Huus
TTITLE8=Zyt
TTITLE9=Tarifa
TTITLE10=Mond
TTITLE11=Herbscht
EXTD=
EXTT0=
EXTT1=
EXTT2=
EXTT3=
EXTT4=
EXTT5=
EXTT6=
EXTT7=
EXTT8=
EXTT9=
EXTT10=
EXTT11=
PLAYORDER=
